<svg xmlns="http://www.w3.org/2000/svg" width="112" height="138" viewBox="0 0 112 138" fill="none">
  <path fill-rule="evenodd" clip-rule="evenodd" d="M51.6449 123.671V131.299C51.6449 136.112 46.1911 138.967 42.2337 136.228C24.4778 123.938 1.60221 107.377 1.21482 92.4636C1.21482 85.8138 1.13937 79.0399 1.05512 72.7847C1.03147 71.0283 1.00712 69.3128 0.983551 67.6524C0.901043 61.8393 0.828125 56.7017 0.828125 52.8505C0.828125 46.0747 1.04935 39.2959 1.30217 32.5255C1.54166 26.1117 4.59611 20.0928 9.70512 16.0599C36.8322 -5.3533 75.7845 -5.3533 102.771 16.0599C107.827 20.0516 110.871 25.9891 111.165 32.3292C111.482 39.1689 111.648 46.0012 111.648 52.8505C111.648 60.4066 111.55 66.6 111.453 72.7753V72.776C111.436 79.3386 111.261 85.9001 111.261 92.4636C111.261 107.39 88.2966 123.302 70.4632 135.841C66.4634 138.654 60.8308 135.783 60.8308 130.894V123.671C59.4438 123.852 57.8851 123.9 56.2377 123.9C54.5903 123.9 53.0318 123.852 51.6449 123.671Z" fill="url(#paint0_linear_63_1909)"/>
  <path fill-rule="evenodd" clip-rule="evenodd" d="M99.0815 20.7104C102.757 23.6218 104.933 27.9015 105.267 32.5661C105.726 38.9751 105.72 44.7553 105.714 50.7426C105.706 58.0609 105.633 65.3778 105.519 72.6952L105.519 72.6979C105.422 78.832 105.326 84.9925 105.326 92.4642C105.326 94.6666 104.47 97.3443 102.4 100.568C100.339 103.778 97.2991 107.176 93.5081 110.701C85.363 118.275 76.1277 124.604 67.0496 130.986C66.907 131.074 66.7674 131.019 66.7674 130.894V80.8991L85.3003 82.1214C92.6388 82.6053 98.8573 76.7835 98.8573 69.4291V58.0034C98.8573 50.4964 92.3899 44.6222 84.9175 45.3422L62.9278 47.4609C58.7626 47.8622 54.5686 47.8622 50.4035 47.4609L28.4137 45.3422C20.9413 44.6222 14.474 50.4964 14.474 58.0034V69.4291C14.474 76.7835 20.6925 82.6053 28.0309 82.1214L45.7095 80.9554V131.3C45.7095 131.348 45.6614 131.382 45.6126 131.348C36.7121 125.188 26.9047 118.207 19.2867 111.014C15.4861 107.426 12.403 103.943 10.2803 100.65C8.16304 97.3652 7.22652 94.6196 7.15134 92.3772C7.15069 85.7444 7.07574 78.9993 6.99218 72.7853C6.90284 66.141 6.76465 59.4961 6.76465 52.8511C6.76465 46.0836 6.89725 39.2864 7.24439 32.526C7.47969 27.9436 9.69029 23.6351 13.3836 20.7197C38.3598 1.00433 74.2619 1.01635 99.0815 20.7104Z" fill="white"/>
  <path d="M36.5307 54.8223C33.4082 54.8223 30.877 57.3535 30.877 60.476L30.877 67.6741C30.877 70.0382 32.8988 71.8968 35.2546 71.6982L41.1035 71.2051C42.7766 71.064 44.0628 69.6649 44.0628 67.9858L44.0628 60.476C44.0628 57.3535 41.5316 54.8223 38.4091 54.8223H36.5307Z" fill="white"/>
  <path d="M73.2558 54.8223C70.1334 54.8223 67.6021 57.3535 67.6021 60.476V68.0157C67.6021 69.6822 68.8698 71.0753 70.529 71.232L76.3699 71.7837C78.7397 72.0075 80.788 70.1436 80.788 67.7632L80.788 60.476C80.788 57.3535 78.2567 54.8223 75.1343 54.8223H73.2558Z" fill="white"/>
  <defs>
    <linearGradient id="paint0_linear_63_1909" x1="56.2378" y1="0" x2="56.2378" y2="137.295" gradientUnits="userSpaceOnUse">
      <stop stop-color="#000428"/>
      <stop offset="0.635417" stop-color="#004E92"/>
      <stop offset="1" stop-color="#0173B3"/>
    </linearGradient>
  </defs>
</svg>
