<svg width="18" height="18" viewBox="0 0 18 18" fill="none" xmlns="http://www.w3.org/2000/svg">
<path fill-rule="evenodd" clip-rule="evenodd" d="M0.0246876 4.5C0.259222 2.13779 2.13779 0.259222 4.5 0.0246876V4.5H0.0246876ZM0 6.75V11.25H4.5V6.75H0ZM6.75 6.75V11.25H11.25H13.5H18V5C18 2.23858 15.7614 0 13 0H6.75V4.5V6.75ZM0.0246876 13.5H4.5V17.9753C2.13779 17.7408 0.259222 15.8622 0.0246876 13.5ZM11.25 13.5H6.75V18H11.25V13.5ZM13.5 17.9753V13.5H17.9753C17.7408 15.8622 15.8622 17.7408 13.5 17.9753Z" fill="#0B2535"/>
</svg>
