<svg xmlns="http://www.w3.org/2000/svg" width="138" height="26" viewBox="0 0 138 26" fill="none">
  <path d="M9.637 9.372c1.965 0 3.546.59 4.745 1.768 1.218 1.18 1.827 2.928 1.827 5.246v9.077h-4.597v-8.37c0-1.257-.276-2.19-.826-2.8-.55-.628-1.345-.942-2.387-.942-1.159 0-2.082.363-2.77 1.09-.688.707-1.032 1.768-1.032 3.183v7.84H0V9.607h4.391v1.857c.61-.668 1.366-1.18 2.27-1.533.903-.373 1.895-.56 2.976-.56Z" fill="#1D2630"/>
  <path d="M29.715 22.015c.825 0 1.552-.118 2.18-.354a5.475 5.475 0 0 0 1.798-1.178l2.446 2.652c-1.493 1.71-3.674 2.564-6.542 2.564-1.788 0-3.37-.344-4.745-1.031-1.375-.708-2.436-1.68-3.183-2.918-.747-1.238-1.12-2.643-1.12-4.214 0-1.553.364-2.948 1.09-4.185a7.737 7.737 0 0 1 3.036-2.918c1.297-.707 2.75-1.06 4.362-1.06 1.513 0 2.888.323 4.126.972a7.144 7.144 0 0 1 2.947 2.77c.746 1.198 1.12 2.623 1.12 4.273l-11.73 2.27c.334.785.855 1.375 1.562 1.768.727.393 1.611.59 2.653.59Zm-.678-9.165c-1.16 0-2.102.373-2.83 1.12-.726.746-1.11 1.778-1.149 3.094l7.722-1.503a3.464 3.464 0 0 0-1.327-1.975c-.668-.49-1.473-.736-2.416-.736Z" fill="#1D2630"/>
  <path d="M57.472 9.608v15.855h-4.361v-1.886a6.258 6.258 0 0 1-2.181 1.592 7.027 7.027 0 0 1-2.741.53c-2.083 0-3.733-.6-4.951-1.798-1.218-1.198-1.828-2.976-1.828-5.334v-8.96h4.598v8.282c0 2.554 1.07 3.832 3.212 3.832 1.1 0 1.985-.354 2.653-1.061.668-.727 1.002-1.798 1.002-3.213v-7.84h4.597Z" fill="#1D2630"/>
  <path d="M72.459 24.697c-.452.334-1.012.59-1.68.766a8.602 8.602 0 0 1-2.033.236c-1.906 0-3.37-.481-4.392-1.444-1.021-.963-1.532-2.377-1.532-4.244V6.101h4.597v3.86h3.92v3.537h-3.92v6.454c0 .668.167 1.189.501 1.562.334.354.816.53 1.445.53.707 0 1.336-.196 1.886-.589l1.208 3.242Z" fill="#1D2630"/>
  <path d="M80.626 11.7c.55-.766 1.286-1.345 2.21-1.738.943-.393 2.024-.59 3.242-.59v4.244a16.66 16.66 0 0 0-1.032-.059c-1.316 0-2.348.373-3.094 1.12-.747.727-1.12 1.827-1.12 3.3v7.486h-4.597V9.608h4.39V11.7Z" fill="#1D2630"/>
  <path d="M89.99 9.608h4.598v15.855H89.99V9.608Z" fill="#1D2630"/>
  <path d="M109.671 9.372c1.964 0 3.546.59 4.744 1.768 1.218 1.18 1.828 2.928 1.828 5.246v9.077h-4.598v-8.37c0-1.257-.275-2.19-.825-2.8-.55-.628-1.346-.942-2.387-.942-1.159 0-2.083.363-2.771 1.09-.687.707-1.031 1.768-1.031 3.183v7.84h-4.598V9.607h4.392v1.857c.609-.668 1.365-1.18 2.269-1.533.904-.373 1.896-.56 2.977-.56Z" fill="#1D2630"/>
  <path d="M129.306 25.7c-1.67 0-3.173-.345-4.509-1.032-1.316-.708-2.348-1.68-3.094-2.918-.747-1.238-1.12-2.643-1.12-4.214 0-1.572.373-2.977 1.12-4.215.746-1.237 1.778-2.2 3.094-2.888 1.336-.707 2.839-1.06 4.509-1.06 1.67 0 3.163.353 4.48 1.06 1.316.688 2.348 1.65 3.094 2.888.747 1.238 1.12 2.643 1.12 4.215 0 1.571-.373 2.976-1.12 4.214-.746 1.238-1.778 2.21-3.094 2.918-1.317.687-2.81 1.031-4.48 1.031Zm0-3.773c1.179 0 2.142-.393 2.888-1.18.766-.805 1.15-1.875 1.15-3.211 0-1.336-.384-2.397-1.15-3.183-.746-.806-1.709-1.209-2.888-1.209-1.179 0-2.151.403-2.918 1.209-.766.786-1.149 1.847-1.149 3.183 0 1.336.383 2.406 1.149 3.212.767.786 1.739 1.179 2.918 1.179Z" fill="#1D2630"/>
  <path d="m92.258.78 3.687 3.687-3.687 3.686-3.687-3.686L92.258.78Z" fill="#1D2630"/>
</svg>
