<svg xmlns="http://www.w3.org/2000/svg" width="183" height="42" viewBox="0 0 183 42" fill="none">
  <g clip-path="url(#clip0_607_3018)">
    <path d="M27.961 3.803c-.755.755-2.05.985-2.806.23L21.875.752a2.125 2.125 0 00-3.006 0l-3.281 3.28c-.756.756-2.051.526-2.807-.229a6.44 6.44 0 10-9.107 9.108c.755.755.985 2.05.23 2.806L.621 18.998c-.83.83-.83 2.176 0 3.005l3.281 3.281c.756.756 2.051.526 2.807-.23a6.44 6.44 0 019.108 9.108c-.756.756-.986 2.052-.23 2.807l3.28 3.28c.83.83 2.176.83 3.006 0l3.28-3.28c.756-.755 2.052-.526 2.807.23a6.44 6.44 0 009.108-9.108c-.755-.756-.985-2.051-.23-2.807l3.281-3.28c.83-.83.83-2.176 0-3.006l-3.28-3.28c-.756-.756-.526-2.052.23-2.807a6.44 6.44 0 00-9.109-9.108z" fill="#7075E9"/>
    <path d="M66.608 17.13c0 .793-.191 1.537-.574 2.23-.368.695-.956 1.255-1.764 1.68-.793.425-1.8.637-3.018.637h-2.486v5.696h-2.975V12.539h5.461c1.148 0 2.126.198 2.933.595.808.397 1.41.942 1.806 1.636.411.695.617 1.481.617 2.36zm-5.483 2.146c.822 0 1.43-.184 1.828-.553.396-.382.595-.913.595-1.594 0-1.445-.808-2.167-2.423-2.167h-2.359v4.314h2.359z" fill="#363870"/>
    <path d="M79.622 15.598v11.774h-2.997v-1.488c-.382.51-.885.914-1.509 1.212a4.677 4.677 0 01-1.997.424c-.921 0-1.736-.19-2.444-.573a4.273 4.273 0 01-1.68-1.722c-.396-.765-.594-1.671-.594-2.72v-6.907h2.975v6.482c0 .935.234 1.658.701 2.168.468.496 1.106.744 1.913.744.822 0 1.466-.248 1.934-.744.467-.51.701-1.233.701-2.168v-6.482h2.997z" fill="#363870"/>
    <path d="M85.065 24.928h5.249v2.444h-8.628V24.97l5.143-6.928h-5.122v-2.444h8.543V18l-5.185 6.928z" fill="#363870"/>
    <path d="M95.126 24.928h5.249v2.444h-8.628V24.97l5.143-6.928h-5.122v-2.444h8.543V18l-5.185 6.928z" fill="#363870"/>
    <path d="M105.441 11.646v15.726h-2.975V11.646h2.975z" fill="#363870"/>
    <path d="M119.113 21.23c0 .425-.028.808-.085 1.148h-8.607c.071.85.368 1.516.893 1.997.524.482 1.168.723 1.934.723 1.105 0 1.891-.475 2.358-1.424h3.209c-.34 1.134-.991 2.069-1.955 2.805-.963.723-2.146 1.084-3.549 1.084-1.133 0-2.153-.248-3.06-.744a5.471 5.471 0 01-2.104-2.146c-.496-.921-.744-1.984-.744-3.188 0-1.218.248-2.288.744-3.209a5.19 5.19 0 012.083-2.125c.892-.496 1.92-.744 3.081-.744 1.12 0 2.118.241 2.997.723a4.988 4.988 0 012.061 2.061c.496.879.744 1.892.744 3.04zm-3.082-.85c-.014-.765-.29-1.374-.828-1.828-.539-.467-1.198-.7-1.977-.7-.736 0-1.36.226-1.87.68-.496.438-.8 1.055-.914 1.848h5.589z" fill="#363870"/>
    <path d="M131.046 27.521c-1.034 0-1.969-.177-2.805-.531-.822-.354-1.474-.864-1.955-1.53-.482-.666-.73-1.453-.744-2.36h3.187c.043.61.256 1.092.638 1.446.397.354.935.531 1.615.531.694 0 1.24-.163 1.637-.489.396-.34.595-.779.595-1.317 0-.44-.135-.8-.404-1.084a2.702 2.702 0 00-1.02-.659c-.397-.17-.95-.354-1.658-.552-.963-.284-1.75-.56-2.359-.83a4.37 4.37 0 01-1.551-1.253c-.425-.567-.638-1.318-.638-2.253 0-.878.22-1.643.659-2.295.439-.652 1.056-1.148 1.849-1.488.793-.354 1.7-.53 2.72-.53 1.53 0 2.77.375 3.719 1.126.964.736 1.495 1.77 1.594 3.102h-3.273a1.656 1.656 0 00-.658-1.254c-.397-.34-.928-.51-1.594-.51-.581 0-1.049.15-1.403.447-.34.297-.51.73-.51 1.296 0 .397.127.73.383.999.269.255.595.467.977.637.397.156.949.34 1.658.553.963.283 1.749.567 2.359.85a4.234 4.234 0 011.572 1.275c.439.567.659 1.31.659 2.232 0 .793-.205 1.53-.616 2.21-.411.68-1.013 1.225-1.807 1.636-.793.397-1.735.595-2.826.595z" fill="#363870"/>
    <path d="M154.982 15.598l-3.442 11.774h-3.209l-2.147-8.225-2.146 8.225h-3.23l-3.464-11.774h3.017l2.083 8.969 2.253-8.969h3.145l2.21 8.947 2.083-8.947h2.847z" fill="#363870"/>
    <path d="M155.615 21.443c0-1.19.234-2.246.701-3.167.482-.92 1.127-1.63 1.934-2.125.822-.496 1.736-.744 2.742-.744.878 0 1.643.177 2.295.531.666.355 1.197.801 1.594 1.34v-1.68h2.996v11.774h-2.996V25.65c-.383.552-.914 1.012-1.594 1.38-.666.355-1.438.532-2.317.532a5.059 5.059 0 01-2.72-.765c-.807-.51-1.452-1.225-1.934-2.146-.467-.935-.701-2.005-.701-3.21zm9.266.042c0-.722-.142-1.339-.425-1.849a2.911 2.911 0 00-1.148-1.19 3.01 3.01 0 00-1.551-.425 3.01 3.01 0 00-1.53.404c-.468.27-.85.666-1.148 1.19-.283.51-.425 1.12-.425 1.828s.142 1.331.425 1.87c.298.524.68.928 1.148 1.211.481.284.991.425 1.53.425a3.13 3.13 0 001.551-.404c.482-.283.864-.68 1.148-1.19.283-.524.425-1.147.425-1.87z" fill="#363870"/>
    <path d="M173.545 17.299c.382-.539.906-.985 1.572-1.34.68-.368 1.452-.552 2.317-.552 1.006 0 1.912.248 2.72.744.822.496 1.466 1.204 1.934 2.125.481.907.722 1.962.722 3.167 0 1.204-.241 2.274-.722 3.209-.468.92-1.112 1.636-1.934 2.146-.808.51-1.714.765-2.72.765-.865 0-1.63-.177-2.296-.531a4.928 4.928 0 01-1.593-1.339v7.29h-2.976V15.598h2.976v1.7zm6.226 4.144c0-.709-.148-1.318-.446-1.828a2.904 2.904 0 00-1.148-1.19 3.01 3.01 0 00-1.53-.404c-.538 0-1.048.142-1.53.425-.467.27-.85.666-1.147 1.19-.284.524-.425 1.14-.425 1.85 0 .708.141 1.324.425 1.848.297.524.68.928 1.147 1.211.482.27.992.404 1.53.404.553 0 1.063-.142 1.53-.425a3.052 3.052 0 001.148-1.211c.298-.524.446-1.148.446-1.87z" fill="#363870"/>
  </g>
  <defs>
    <clipPath id="clip0_607_3018">
      <path fill="#fff" transform="translate(0 .13)" d="M0 0h183v41.323H0z"/>
    </clipPath>
  </defs>
</svg>
