<svg xmlns="http://www.w3.org/2000/svg" width="148" height="30" viewBox="0 0 148 30" fill="none">
  <path fill-rule="evenodd" clip-rule="evenodd" d="M74.888 1.993h-2.486v20.3h2.486V14.47c0-1.965.418-3.301 1.256-4.008.838-.707 1.773-1.06 2.804-1.06 1.243 0 2.09.404 2.54 1.211.277.505.415 1.3.415 2.383v9.296h2.555v-9.461c0-1.45-.207-2.585-.621-3.402-.764-1.496-2.22-2.245-4.364-2.245-1.197 0-2.196.262-2.997.785-.47.303-1 .827-1.588 1.57V1.993ZM63.963 7.117c1.667 0 3.023.404 4.068 1.212 1.045.807 1.673 2.198 1.885 4.172h-2.417c-.147-.909-.483-1.664-1.008-2.265-.525-.601-1.367-.902-2.528-.902-1.583 0-2.716.771-3.397 2.314-.442 1-.663 2.235-.663 3.704 0 1.478.313 2.722.94 3.732.625 1.01 1.61 1.515 2.955 1.515 1.03 0 1.848-.314 2.451-.943.603-.63 1.02-1.49 1.25-2.582h2.417c-.276 1.955-.967 3.385-2.072 4.29-1.105.904-2.518 1.356-4.24 1.356-1.933 0-3.475-.705-4.626-2.114-1.151-1.41-1.727-3.17-1.727-5.282 0-2.588.631-4.604 1.893-6.045 1.26-1.442 2.867-2.162 4.82-2.162Zm-29.416.096c1.05 0 2.067.245 3.052.737.985.49 1.736 1.127 2.251 1.907.426.637.73 1.366.913 2.186l.081.417c.148.68.221 1.763.221 3.25h-10.84c.045 1.496.4 2.697 1.063 3.601.663.905 1.69 1.357 3.08 1.357 1.298 0 2.333-.427 3.107-1.281.442-.496.755-1.07.939-1.721h2.444c-.064.541-.278 1.145-.642 1.81-.364.666-.77 1.21-1.222 1.632-.755.735-1.69 1.23-2.804 1.488a8.54 8.54 0 0 1-2.03.22c-1.841 0-3.402-.668-4.681-2.004-1.28-1.335-1.92-3.206-1.92-5.612 0-2.368.644-4.292 1.933-5.77 1.29-1.478 2.974-2.217 5.055-2.217Zm3.964 6.528c-.102-1.074-.336-1.933-.705-2.575-.68-1.194-1.818-1.79-3.41-1.79-1.142 0-2.1.41-2.873 1.232-.774.822-1.183 1.866-1.23 3.133h8.218Zm7.416-6.197h-3.218l4.944 7.188-5.206 7.56h3.148l3.563-5.535 3.674 5.536h3.177l-5.207-7.56 4.986-7.12-3.025-.07-3.439 5.192-3.397-5.191Zm51.278 5.095c-.193.404-.575.643-1.146.716l-3.964.496c-1.39.174-2.513.638-3.37 1.39-.856.754-1.284 1.814-1.284 3.182 0 1.249.435 2.289 1.305 3.12.87.83 1.991 1.246 3.363 1.246 1.142 0 2.187-.244 3.135-.73.948-.487 1.676-1.06 2.182-1.722.083.588.226 1.042.428 1.364.387.606 1.008.909 1.865.909.35 0 .626-.014.828-.042a4.54 4.54 0 0 0 .464-.094l.42-.112V20.53a5.943 5.943 0 0 1-.442.062c-.138.014-.262.02-.373.02-.34 0-.564-.077-.67-.233-.105-.156-.158-.363-.158-.62v-8.497c0-1.396-.539-2.424-1.616-3.085-1.087-.661-2.5-.992-4.24-.992-1.5 0-2.82.356-3.957 1.068-1.137.711-1.728 1.976-1.774 3.794h2.32c.092-.762.29-1.336.594-1.722.543-.697 1.464-1.046 2.762-1.046 1.123 0 1.986.19 2.59.571.602.381.904.994.904 1.839 0 .413-.055.73-.166.95Zm-6.38 7.423c-.525-.413-.788-.978-.788-1.694 0-.946.383-1.634 1.147-2.066.45-.257 1.128-.445 2.03-.564l1.505-.193c.46-.055.93-.147 1.409-.276.479-.128.87-.289 1.174-.482v1.997c0 1.524-.69 2.621-2.072 3.292a5.683 5.683 0 0 1-2.54.605c-.719 0-1.34-.206-1.865-.62Zm15.399-12.519h-2.362v14.75h2.486v-7.726c0-.964.062-1.706.186-2.224.125-.519.394-1.022.808-1.508.516-.606 1.114-1.01 1.796-1.212.377-.12.86-.18 1.45-.18 1.16 0 1.961.46 2.403 1.378.267.55.4 1.276.4 2.176v9.296h2.528v-9.461c0-1.488-.203-2.63-.608-3.43-.737-1.46-2.155-2.19-4.254-2.19-.957 0-1.827.19-2.61.565-.783.377-1.524.997-2.223 1.86V7.543Zm21.627.592c-.866-.569-1.878-.853-3.039-.853-1.712 0-3.174.693-4.384 2.08-1.211 1.386-1.816 3.313-1.816 5.783 0 2.617.6 4.492 1.802 5.626 1.201 1.134 2.603 1.7 4.205 1.7 1.151 0 2.076-.183 2.776-.55.7-.367 1.298-.927 1.795-1.68.028 2.029-.133 3.438-.483 4.228-.589 1.34-1.837 2.01-3.743 2.01-1.206 0-2.09-.275-2.651-.826-.359-.358-.599-.868-.718-1.529h-2.528c.129 1.515.737 2.628 1.823 3.34 1.087.712 2.426 1.067 4.019 1.067 2.864 0 4.811-1 5.842-3.002.552-1.083.829-2.561.829-4.434V7.68h-2.293v1.86c-.488-.616-.967-1.084-1.436-1.406Zm.304 2.659c.755.88 1.132 2.235 1.132 4.062 0 1.212-.202 2.272-.607 3.181-.728 1.607-1.985 2.41-3.771 2.41-1.141 0-2.051-.433-2.727-1.301-.677-.868-1.015-2.132-1.015-3.794 0-1.414.17-2.557.511-3.43.644-1.633 1.841-2.45 3.59-2.45 1.17 0 2.132.44 2.887 1.322Zm13.327-3.581c1.049 0 2.067.245 3.052.737.985.49 1.735 1.127 2.251 1.907.426.637.73 1.366.913 2.186l.081.417c.147.68.221 1.763.221 3.25h-10.841c.046 1.496.4 2.697 1.063 3.601.663.905 1.69 1.357 3.08 1.357 1.298 0 2.334-.427 3.107-1.281.442-.496.755-1.07.94-1.721h2.444c-.064.541-.279 1.145-.642 1.81-.364.666-.771 1.21-1.222 1.632-.755.735-1.69 1.23-2.804 1.488a8.536 8.536 0 0 1-2.03.22c-1.842 0-3.402-.668-4.682-2.004-1.28-1.335-1.92-3.206-1.92-5.612 0-2.368.645-4.292 1.934-5.77 1.289-1.478 2.974-2.217 5.055-2.217Zm3.963 6.528h-8.217c.046-1.267.455-2.311 1.229-3.133.773-.822 1.731-1.233 2.872-1.233 1.593 0 2.73.597 3.412 1.79.368.643.603 1.502.704 2.576Z" fill="#000"/>
  <path fill-rule="evenodd" clip-rule="evenodd" d="M74.888 1.993h-2.486v20.3h2.486V14.47c0-1.965.418-3.301 1.256-4.008.838-.707 1.773-1.06 2.804-1.06 1.243 0 2.09.404 2.54 1.211.277.505.415 1.3.415 2.383v9.296h2.555v-9.461c0-1.45-.207-2.585-.621-3.402-.764-1.496-2.22-2.245-4.364-2.245-1.197 0-2.196.262-2.997.785-.47.303-1 .827-1.588 1.57V1.993ZM63.963 7.117c1.667 0 3.023.404 4.068 1.212 1.045.807 1.673 2.198 1.885 4.172h-2.417c-.147-.909-.483-1.664-1.008-2.265-.525-.601-1.367-.902-2.528-.902-1.583 0-2.716.771-3.397 2.314-.442 1-.663 2.235-.663 3.704 0 1.478.313 2.722.94 3.732.625 1.01 1.61 1.515 2.955 1.515 1.03 0 1.848-.314 2.451-.943.603-.63 1.02-1.49 1.25-2.582h2.417c-.276 1.955-.967 3.385-2.072 4.29-1.105.904-2.518 1.356-4.24 1.356-1.933 0-3.475-.705-4.626-2.114-1.151-1.41-1.727-3.17-1.727-5.282 0-2.588.631-4.604 1.893-6.045 1.26-1.442 2.867-2.162 4.82-2.162Zm-29.416.096c1.05 0 2.067.245 3.052.737.985.49 1.736 1.127 2.251 1.907.426.637.73 1.366.913 2.186l.081.417c.148.68.221 1.763.221 3.25h-10.84c.045 1.496.4 2.697 1.063 3.601.663.905 1.69 1.357 3.08 1.357 1.298 0 2.333-.427 3.107-1.281.442-.496.755-1.07.939-1.721h2.444c-.064.541-.278 1.145-.642 1.81-.364.666-.77 1.21-1.222 1.632-.755.735-1.69 1.23-2.804 1.488a8.54 8.54 0 0 1-2.03.22c-1.841 0-3.402-.668-4.681-2.004-1.28-1.335-1.92-3.206-1.92-5.612 0-2.368.644-4.292 1.933-5.77 1.29-1.478 2.974-2.217 5.055-2.217Zm3.964 6.528c-.102-1.074-.336-1.933-.705-2.575-.68-1.194-1.818-1.79-3.41-1.79-1.142 0-2.1.41-2.873 1.232-.774.822-1.183 1.866-1.23 3.133h8.218Zm7.416-6.197h-3.218l4.944 7.188-5.206 7.56h3.148l3.563-5.535 3.674 5.536h3.177l-5.207-7.56 4.986-7.12-3.025-.07-3.439 5.192-3.397-5.191Zm51.278 5.095c-.193.404-.575.643-1.146.716l-3.964.496c-1.39.174-2.513.638-3.37 1.39-.856.754-1.284 1.814-1.284 3.182 0 1.249.435 2.289 1.305 3.12.87.83 1.991 1.246 3.363 1.246 1.142 0 2.187-.244 3.135-.73.948-.487 1.676-1.06 2.182-1.722.083.588.226 1.042.428 1.364.387.606 1.008.909 1.865.909.35 0 .626-.014.828-.042a4.54 4.54 0 0 0 .464-.094l.42-.112V20.53a5.943 5.943 0 0 1-.442.062c-.138.014-.262.02-.373.02-.34 0-.564-.077-.67-.233-.105-.156-.158-.363-.158-.62v-8.497c0-1.396-.539-2.424-1.616-3.085-1.087-.661-2.5-.992-4.24-.992-1.5 0-2.82.356-3.957 1.068-1.137.711-1.728 1.976-1.774 3.794h2.32c.092-.762.29-1.336.594-1.722.543-.697 1.464-1.046 2.762-1.046 1.123 0 1.986.19 2.59.571.602.381.904.994.904 1.839 0 .413-.055.73-.166.95Zm-6.38 7.423c-.525-.413-.788-.978-.788-1.694 0-.946.383-1.634 1.147-2.066.45-.257 1.128-.445 2.03-.564l1.505-.193c.46-.055.93-.147 1.409-.276.479-.128.87-.289 1.174-.482v1.997c0 1.524-.69 2.621-2.072 3.292a5.683 5.683 0 0 1-2.54.605c-.719 0-1.34-.206-1.865-.62Zm15.399-12.519h-2.362v14.75h2.486v-7.726c0-.964.062-1.706.186-2.224.125-.519.394-1.022.808-1.508.516-.606 1.114-1.01 1.796-1.212.377-.12.86-.18 1.45-.18 1.16 0 1.961.46 2.403 1.378.267.55.4 1.276.4 2.176v9.296h2.528v-9.461c0-1.488-.203-2.63-.608-3.43-.737-1.46-2.155-2.19-4.254-2.19-.957 0-1.827.19-2.61.565-.783.377-1.524.997-2.223 1.86V7.543Zm21.627.592c-.866-.569-1.878-.853-3.039-.853-1.712 0-3.174.693-4.384 2.08-1.211 1.386-1.816 3.313-1.816 5.783 0 2.617.6 4.492 1.802 5.626 1.201 1.134 2.603 1.7 4.205 1.7 1.151 0 2.076-.183 2.776-.55.7-.367 1.298-.927 1.795-1.68.028 2.029-.133 3.438-.483 4.228-.589 1.34-1.837 2.01-3.743 2.01-1.206 0-2.09-.275-2.651-.826-.359-.358-.599-.868-.718-1.529h-2.528c.129 1.515.737 2.628 1.823 3.34 1.087.712 2.426 1.067 4.019 1.067 2.864 0 4.811-1 5.842-3.002.552-1.083.829-2.561.829-4.434V7.68h-2.293v1.86c-.488-.616-.967-1.084-1.436-1.406Zm.304 2.659c.755.88 1.132 2.235 1.132 4.062 0 1.212-.202 2.272-.607 3.181-.728 1.607-1.985 2.41-3.771 2.41-1.141 0-2.051-.433-2.727-1.301-.677-.868-1.015-2.132-1.015-3.794 0-1.414.17-2.557.511-3.43.644-1.633 1.841-2.45 3.59-2.45 1.17 0 2.132.44 2.887 1.322Zm13.327-3.581c1.049 0 2.067.245 3.052.737.985.49 1.735 1.127 2.251 1.907.426.637.73 1.366.913 2.186l.081.417c.147.68.221 1.763.221 3.25h-10.841c.046 1.496.4 2.697 1.063 3.601.663.905 1.69 1.357 3.08 1.357 1.298 0 2.334-.427 3.107-1.281.442-.496.755-1.07.94-1.721h2.444c-.064.541-.279 1.145-.642 1.81-.364.666-.771 1.21-1.222 1.632-.755.735-1.69 1.23-2.804 1.488a8.536 8.536 0 0 1-2.03.22c-1.842 0-3.402-.668-4.682-2.004-1.28-1.335-1.92-3.206-1.92-5.612 0-2.368.645-4.292 1.934-5.77 1.289-1.478 2.974-2.217 5.055-2.217Zm3.963 6.528h-8.217c.046-1.267.455-2.311 1.229-3.133.773-.822 1.731-1.233 2.872-1.233 1.593 0 2.73.597 3.412 1.79.368.643.603 1.502.704 2.576Z" fill="#121212"/>
  <path fill-rule="evenodd" clip-rule="evenodd" d="m11.228 15.262 11.227 11.227H0l11.228-11.227Z" fill="#5A81EA"/>
  <path fill-rule="evenodd" clip-rule="evenodd" d="M11.228 15.262 22.455 4.034H0l11.228 11.228Z" fill="#E14B51"/>
</svg>
