<svg width="20" height="20" viewBox="0 0 20 20" fill="none" xmlns="http://www.w3.org/2000/svg">
<circle cx="10" cy="10" r="10" fill="#F0B90B"/>
<path d="M6.70441 10.0001L5.3587 11.3476L4 10.0001L5.3582 8.64062L6.70441 10.0001ZM9.99426 6.70712L12.312 9.02712L13.6707 7.66812L9.99426 4.00012L6.31778 7.68012L7.67648 9.03912L9.99426 6.70712ZM14.6303 8.64062L13.2841 10.0001L14.6423 11.3596L16 10.0001L14.6303 8.64062ZM9.99426 13.2931L7.67648 10.9611L6.31778 12.3206L9.99426 16.0001L13.6707 12.3201L12.312 10.9611L9.99426 13.2931ZM9.99426 11.3481L11.3525 9.98812L9.99426 8.64112L8.63606 10.0001L9.99426 11.3476V11.3481Z" fill="white"/>
</svg>
