<svg width="20" height="20" viewBox="0 0 20 20" fill="none" xmlns="http://www.w3.org/2000/svg">
<circle cx="10" cy="10" r="10" fill="#357CE1"/>
<path fill-rule="evenodd" clip-rule="evenodd" d="M11.4228 7.50093C11.4228 5.63439 10.5371 4.02925 9.86346 3.50656C9.86069 3.50491 9.8119 3.47675 9.81606 3.55139L9.8151 3.55369C9.75916 7.15754 7.9658 8.13432 6.97988 9.45011C4.70461 12.4865 6.82059 15.8156 8.97533 16.4309C10.181 16.7752 8.6969 15.8218 8.5058 13.8079C8.27466 11.3739 11.4228 9.51587 11.4228 7.50093Z" fill="#D7E2F2"/>
<path fill-rule="evenodd" clip-rule="evenodd" d="M12.4578 8.72797C12.4441 8.71832 12.4244 8.71175 12.4109 8.73476C12.3738 9.18841 11.9224 10.1588 11.3503 11.0499C9.40985 14.0724 10.5157 15.5295 11.1374 16.3121C11.4985 16.7664 11.1374 16.3121 12.0399 15.8478C12.1106 15.8114 13.8007 14.8383 13.9837 12.6213C14.1609 10.4744 12.9049 9.12111 12.4578 8.72797Z" fill="#D7E2F2"/>
</svg>
