<svg width="20" height="20" viewBox="0 0 20 20" fill="none" xmlns="http://www.w3.org/2000/svg">
<circle cx="10" cy="10" r="10" fill="white"/>
<ellipse cx="10.0003" cy="6.23077" rx="3.23077" ry="3.23077" fill="#88BDF3"/>
<ellipse cx="6.23077" cy="10.0001" rx="3.23077" ry="3.23077" transform="rotate(-90 6.23077 10.0001)" fill="#205FEC"/>
<ellipse cx="10.0003" cy="13.7692" rx="3.23077" ry="3.23077" fill="#3075EE"/>
<ellipse cx="13.7689" cy="10.0001" rx="3.23077" ry="3.23077" transform="rotate(-90 13.7689 10.0001)" fill="#5795F1"/>
<path d="M9.35432 9.4073C8.04523 9.16457 7.01323 8.13257 6.77051 6.82349C8.07959 7.06621 9.11159 8.09821 9.35432 9.4073Z" fill="#134BEF"/>
<path d="M13.1238 13.1766C11.8148 12.9339 10.7828 11.9019 10.54 10.5928C11.8491 10.8355 12.8811 11.8675 13.1238 13.1766Z" fill="#164BEA"/>
<path d="M9.35334 10.5928C9.11062 11.9019 8.07861 12.9339 6.76953 13.1766C7.01226 11.8675 8.04426 10.8355 9.35334 10.5928Z" fill="#0932E8"/>
<path d="M13.1219 6.82361C12.8792 8.13269 11.8472 9.16469 10.5381 9.40742C10.7808 8.09834 11.8128 7.06633 13.1219 6.82361Z" fill="#3170F1"/>
</svg>
